LG_Sit_Stand_Walk03																		
version=1																		
nRows=70																		
nColumns=19																		
inDegrees=yes																		
endheader																		
time	ground_force2_vx	ground_force2_vy	ground_force2_vz	ground_force2_px	ground_force2_py	ground_force2_pz	ground_torque2_x	ground_torque2_y	ground_torque2_z	ground_force1_vx	ground_force1_vy	ground_force1_vz	ground_force1_px	ground_force1_py	ground_force1_pz	ground_torque1_x	ground_torque1_y	ground_torque1_z
5.12	-23.185286	353.411285	34.877163	0.201694	0	-0.383582	6.00E-06	0.022533	4.00E-06	0	0	0	-0.13	0	0.305	0	0	0
5.121	-23.413063	356.852692	35.190445	0.201976	0	-0.383514	6.00E-06	-0.027806	5.00E-06	0	0	0	-0.13	0	0.305	0	0	0
5.122	-23.571653	357.892212	35.582138	0.201976	0	-0.383514	4.00E-06	-0.027806	5.00E-06	0	0	0	-0.13	0	0.305	0	0	0
5.123	-24.276642	362.537842	36.679169	0.202221	0	-0.383514	7.00E-06	-0.115937	5.00E-06	0	0	0	-0.13	0	0.305	0	0	0
5.124	-24.350163	365.972717	36.835667	0.202227	0	-0.383768	2.00E-06	-0.115937	5.00E-06	0	0	0	-0.13	0	0.305	0	0	0
5.125	-25.051544	366.329834	36.835793	0.202467	0	-0.383768	2.00E-06	-0.115937	5.00E-06	0	0	0	-0.13	0	0.305	0	0	0
5.126	-25.051544	373.220764	36.992249	0.202479	0	-0.383342	2.00E-06	-0.124904	5.00E-06	0	0	0	-0.13	0	0.305	0	0	0
5.127	-25.521534	374.940704	37.540722	0.202656	0	-0.383116	9.00E-06	-0.129294	3.00E-06	0	0	0	-0.13	0	0.305	0	0	0
5.128	-25.753645	375.449463	37.775917	0.202656	0	-0.382845	9.00E-06	-0.179467	3.00E-06	0	0	0	-0.13	0	0.305	0	0	0
5.129	-26.139292	381.82428	37.932335	0.202656	0	-0.382845	9.00E-06	-0.129294	3.00E-06	0	0	0	-0.13	0	0.305	0	0	0
5.13	-26.532154	382.8638	38.010788	0.202404	0	-0.382773	7.00E-06	-0.151579	5.00E-06	0	0	0	-0.13	0	0.305	0	0	0
5.131	-26.689299	386.127808	39.420898	0.202404	0	-0.382773	7.00E-06	-0.151579	2.00E-06	0	0	0	-0.13	0	0.305	0	0	0
5.132	-27.077833	391.63974	39.420898	0.202719	0	-0.382773	7.00E-06	-0.152611	4.00E-06	0	0	0	-0.13	0	0.305	0	0	0
5.133	-27.388515	392.846313	39.420898	0.203114	0	-0.382148	7.00E-06	-0.155656	3.00E-06	0	0	0	-0.13	0	0.305	0	0	0
5.134	-27.702084	397.329559	39.890881	0.203066	0	-0.38221	7.00E-06	-0.152611	3.00E-06	0	0	0	-0.13	0	0.305	0	0	0
5.135	-28.326334	400.937592	40.047543	0.203066	0	-0.38221	-1.00E-06	-0.126643	1.00E-06	0	0	0	-0.13	0	0.305	0	0	0
5.136	-28.558445	402.309204	40.439072	0.203066	0	-0.38221	7.00E-06	-0.126643	1.00E-06	0	0	0	-0.13	0	0.305	0	0	0
5.137	-29.49482	406.972961	40.517403	0.202632	0	-0.381888	2.00E-06	-0.082203	5.00E-06	0	0	0	-0.13	0	0.305	0	0	0
5.138	-30.121235	411.43927	41.2225	0.203341	0	-0.381864	7.00E-06	-0.076752	5.00E-06	0	0	0	-0.13	0	0.305	0	0	0
5.139	-30.198364	414.716736	41.692482	0.203352	0	-0.381249	2.00E-06	-0.076752	6.00E-06	0	0	0	-0.13	0	0.305	0	0	0
5.14	-30.508326	417.488159	41.692482	0.203606	0	-0.381249	5.00E-06	-0.076752	4.00E-06	0	0	0	-0.13	0	0.305	0	0	0
5.141	-31.444702	420.40918	41.692482	0.203814	0	-0.381636	5.00E-06	-0.079815	1.00E-06	0	0	0	-0.13	0	0.305	0	0	0
5.142	-31.913973	424.536438	42.162346	0.203606	0	-0.381663	5.00E-06	-0.073336	1.00E-06	0	0	0	-0.13	0	0.305	0	0	0
5.143	-31.990381	427.977448	42.554237	0.203486	0	-0.381636	9.00E-06	-0.079815	4.00E-06	0	0	0	-0.13	0	0.305	0	0	0
5.144	-32.533894	434.524292	42.710781	0.203486	0	-0.381476	9.00E-06	-0.06973	5.00E-06	0	0	0	-0.13	0	0.305	0	0	0
5.145	-32.61319	437.979584	42.789032	0.203622	0	-0.381155	9.00E-06	-0.159502	4.00E-06	0	0	0	-0.13	0	0.305	0	0	0
5.146	-33.003162	442.104889	43.102192	0.203747	0	-0.380914	5.00E-06	-0.100569	3.00E-06	0	0	0	-0.13	0	0.305	0	0	0
5.147	-33.860245	446.752045	43.572292	0.203894	0	-0.380914	5.00E-06	-0.104532	3.00E-06	0	0	0	-0.13	0	0.305	0	0	0
5.148	-34.012341	449.167419	43.572292	0.203747	0	-0.380914	7.00E-06	-0.100569	4.00E-06	0	0	0	-0.13	0	0.305	0	0	0
5.149	-34.953766	455.363281	43.806965	0.203761	0	-0.380898	8.00E-06	0.085986	7.00E-06	0	0	0	-0.13	0	0.305	0	0	0
5.15	-34.953766	457.769043	44.041958	0.203761	0	-0.380862	9.00E-06	0.085986	4.00E-06	0	0	0	-0.13	0	0.305	0	0	0
5.151	-35.499447	464.144287	44.747051	0.204041	0	-0.379826	9.00E-06	-0.028354	1.00E-06	0	0	0	-0.13	0	0.305	0	0	0
5.152	-36.040073	467.42749	44.747051	0.204159	0	-0.379826	8.00E-06	-0.028354	1.00E-06	0	0	0	-0.13	0	0.305	0	0	0
5.153	-36.19722	470.353577	44.981762	0.204338	0	-0.379826	8.00E-06	-0.028354	1.00E-06	0	0	0	-0.13	0	0.305	0	0	0
5.154	-36.742897	474.143311	45.373573	0.204419	0	-0.380253	8.00E-06	0.008586	2.00E-06	0	0	0	-0.13	0	0.305	0	0	0
5.155	-37.678551	479.127625	45.529999	0.204338	0	-0.379594	8.00E-06	-0.065018	2.00E-06	0	0	0	-0.13	0	0.305	0	0	0
5.156	-37.752792	482.935059	46.313381	0.204419	0	-0.379595	3.00E-06	-0.060215	6.00E-06	0	0	0	-0.13	0	0.305	0	0	0
5.157	-38.067085	489.638123	46.313381	0.204537	0	-0.379595	3.00E-06	-0.060215	0.00E+00	0	0	0	-0.13	0	0.305	0	0	0
5.158	-38.846313	491.180237	46.783569	0.204537	0	-0.379595	5.00E-06	-0.060215	4.00E-06	0	0	0	-0.13	0	0.305	0	0	0
5.159	-38.919117	495.847504	47.3316	0.204276	0	-0.37895	1.60E-05	0.045067	0.00E+00	0	0	0	-0.13	0	0.305	0	0	0
5.16	-39.391994	501.519531	47.801659	0.204276	0	-0.37895	1.60E-05	0.045067	4.00E-06	0	0	0	-0.13	0	0.305	0	0	0
5.161	-40.017685	501.68573	47.801659	0.204025	0	-0.379563	1.20E-05	0.045067	8.00E-06	0	0	0	-0.13	0	0.305	0	0	0
5.162	-40.16906	503.583893	48.97686	0.204346	0	-0.379563	8.00E-06	-0.016615	8.00E-06	0	0	0	-0.13	0	0.305	0	0	0
5.163	-40.481186	513.056458	49.681873	0.204166	0	-0.379563	8.00E-06	-0.016615	0	0	0	0	-0.13	0	0.305	0	0	0
5.164	-40.794033	513.219971	49.681957	0.204346	0	-0.379644	1.40E-05	-0.016615	0	0	0	0	-0.13	0	0.305	0	0	0
5.165	-40.794033	518.561035	49.995358	0.204522	0	-0.379644	1.40E-05	-0.086102	2.00E-06	0	0	0	-0.13	0	0.305	0	0	0
5.166	-41.261139	524.249695	50.230232	0.204522	0	-0.379275	6.00E-06	-0.086102	5.00E-06	0	0	0	-0.13	0	0.305	0	0	0
5.167	-40.867554	526.325684	50.700172	0.204766	0	-0.378613	5.00E-06	-0.179309	5.00E-06	0	0	0	-0.13	0	0.305	0	0	0
5.168	-41.727524	530.966675	51.875534	0.204746	0	-0.378613	6.00E-06	-0.179309	8.00E-06	0	0	0	-0.13	0	0.305	0	0	0
5.169	-41.882504	536.302368	53.050613	0.204746	0	-0.378471	7.00E-06	-0.179309	3.00E-06	0	0	0	-0.13	0	0.305	0	0	0
5.17	-42.348888	538.203552	53.050613	0.204743	0	-0.37827	7.00E-06	-0.206662	3.00E-06	0	0	0	-0.13	0	0.305	0	0	0
5.171	-43.368889	544.758545	53.050613	0.204743	0	-0.377819	7.00E-06	-0.13582	2.00E-06	0	0	0	-0.13	0	0.305	0	0	0
5.172	-43.368889	549.051636	54.85294	0.204886	0	-0.377729	8.00E-06	-0.210828	2.00E-06	0	0	0	-0.13	0	0.305	0	0	0
5.173	-43.990974	549.582764	55.166264	0.205069	0	-0.377729	8.00E-06	-0.210828	2.00E-06	0	0	0	-0.13	0	0.305	0	0	0
5.174	-44.460243	555.104736	55.479622	0.205162	0	-0.377372	9.00E-06	-0.210828	2.00E-06	0	0	0	-0.13	0	0.305	0	0	0
5.175	-46.023758	560.259949	55.479622	0.205069	0	-0.377372	5.00E-06	-0.22199	3.00E-06	0	0	0	-0.13	0	0.305	0	0	0
5.176	-46.331551	564.220093	56.654861	0.205189	0	-0.377372	1.00E-05	-0.22569	3.00E-06	0	0	0	-0.13	0	0.305	0	0	0
5.177	-46.410847	568.884644	57.438129	0.205169	0	-0.377243	1.00E-05	-0.22569	6.00E-06	0	0	0	-0.13	0	0.305	0	0	0
5.178	-48.52076	571.645325	57.438168	0.205169	0	-0.376775	1.40E-05	-0.110944	6.00E-06	0	0	0	-0.13	0	0.305	0	0	0
5.179	-48.755035	574.048706	57.516579	0.205169	0	-0.376775	1.40E-05	-0.110944	4.00E-06	0	0	0	-0.13	0	0.305	0	0	0
5.18	-49.457138	576.823975	57.59491	0.205291	0	-0.376775	1.10E-05	-0.110944	4.00E-06	0	0	0	-0.13	0	0.305	0	0	0
5.181	-49.84639	581.633911	58.378216	0.205291	0	-0.376539	1.10E-05	-0.119302	8.00E-06	0	0	0	-0.13	0	0.305	0	0	0
5.182	-50.236366	586.283813	58.456467	0.205291	0	-0.376539	1.50E-05	-0.10489	8.00E-06	0	0	0	-0.13	0	0.305	0	0	0
5.183	-50.314941	590.413757	58.691658	0.205345	0	-0.376539	1.50E-05	-0.108358	8.00E-06	0	0	0	-0.13	0	0.305	0	0	0
5.184	-51.091286	594.718384	59.318138	0.205467	0	-0.376368	1.50E-05	-0.108358	8.00E-06	0	0	0	-0.13	0	0.305	0	0	0
5.185	-51.63913	597.31665	59.631542	0.205402	0	-0.376347	1.40E-05	-0.108358	4.00E-06	0	0	0	-0.13	0	0.305	0	0	0
5.186	-52.109119	603.840332	59.866333	0.205425	0	-0.375876	9.00E-06	-0.050137	-1.00E-06	0	0	0	-0.13	0	0.305	0	0	0
5.187	-52.966927	604.030029	60.179535	0.205425	0	-0.375839	9.00E-06	0.014556	-1.00E-06	0	0	0	-0.13	0	0.305	0	0	0
5.188	-53.045494	610.230164	60.179535	0.205445	0	-0.375716	7.00E-06	0.014556	7.00E-06	0	0	0	-0.13	0	0.305	0	0	0
5.189	-53.904022	616.615479	61.511639	0.205445	0	-0.375448	9.00E-06	0.025656	7.00E-06	0	0	0	-0.13	0	0.305	0	0	0
